<svg xmlns="http://www.w3.org/2000/svg" width="104" height="90" viewBox="0 0 104 90"><path fill="#666E6E" d="M75 31h-6c-2.8 0-5.5-1.6-6-3.5S59.8 24 57 24H47c-2.7 0-5.5 1.6-6 3.5S37.8 31 35 31h-6c-2.7 0-5 2.2-5 5v25c0 2.8 2.2 5 5 5h46c2.8 0 5-2.2 5-5V36c0-2.8-2.3-5-5-5zm3 30c0 1.7-1.3 3-3 3H29c-1.7 0-3-1.3-3-3V36c0-1.7 1.3-3 3-3h6c3.7 0 7.1-2.2 7.9-5 .2-.8 2-2 4.1-2h10c2.1 0 3.8 1.2 4.1 2 .8 2.8 4.3 5 7.9 5h6c1.7 0 3 1.3 3 3v25zM52 35c-6.6 0-12 5.4-12 12s5.4 12 12 12 12-5.4 12-12-5.4-12-12-12zm0 22c-5.5 0-10-4.5-10-10s4.5-10 10-10 10 4.5 10 10-4.5 10-10 10z"/></svg>